<?xml version="1.0" encoding="UTF-8"?>
<svg version="1.1" xmlns="http://www.w3.org/2000/svg" width="2713" height="705">
<path d="M0 0 C2.22710425 -0.00407127 4.45420648 -0.00941625 6.68130493 -0.01593018 C12.69779592 -0.02954346 18.71413164 -0.02432989 24.73062515 -0.01479292 C31.04527435 -0.00716522 37.35991079 -0.01425054 43.67456055 -0.01895142 C54.95410801 -0.02474831 66.23359186 -0.01546112 77.51312435 -0.0001734 C87.7161411 0.01322771 97.91905541 0.01089897 108.12207031 -0.00292969 C120.00366951 -0.01902614 131.8852192 -0.02493803 143.7668314 -0.0160929 C150.04423543 -0.01143056 156.32156908 -0.01075182 162.59896851 -0.02070236 C168.50227206 -0.02940731 174.40538332 -0.0232858 180.30866623 -0.00601959 C182.46726539 -0.00207356 184.6258809 -0.00315626 186.78447342 -0.00980759 C201.06435834 -0.04973132 214.13413174 0.29995738 227.05078125 7.13818359 C227.67984375 7.44755859 228.30890625 7.75693359 228.95703125 8.07568359 C240.74085916 14.11130277 249.6776939 23.96166501 258.92407227 33.20507812 C260.4391067 34.71248126 261.95453909 36.2194845 263.47033691 37.72612 C267.56814324 41.80207307 271.65944326 45.88449505 275.74888349 49.96884012 C278.30871098 52.52501383 280.8698294 55.07988697 283.43137932 57.63433456 C292.38077954 66.55927429 301.32447457 75.48989031 310.26342773 84.42529297 C318.57506 92.73329042 326.8997329 101.02806253 335.23045403 109.31691468 C342.4005482 116.45224255 349.56091801 123.59723372 356.71399826 130.74961746 C360.97831992 135.01314863 365.2464695 139.27266336 369.52466011 143.52228165 C373.55035966 147.5216915 377.56376006 151.53305706 381.56833649 155.55361366 C383.03287983 157.01996266 384.50163664 158.48211845 385.97507286 159.93953133 C404.96654901 178.73714223 413.92140556 197.66977968 414.07715547 224.77255762 C414.08316653 227.72039345 414.07942351 230.66812879 414.07543945 233.6159668 C414.07979289 235.75100888 414.08497814 237.88604941 414.09092712 240.02108765 C414.10426076 245.79187907 414.10490206 251.56260478 414.10236382 257.33340859 C414.10129022 262.16408026 414.10618744 266.99473884 414.11096925 271.82540768 C414.12204508 283.22907417 414.12251276 294.6327077 414.11645508 306.03637695 C414.11041716 317.77088882 414.1227262 329.50528073 414.14402515 341.23977214 C414.1616822 351.3420835 414.16763602 361.44435681 414.1643874 371.54668301 C414.16258086 377.56819149 414.1651477 383.58961439 414.17910194 389.61110878 C414.19174249 395.27719301 414.18967757 400.94309122 414.17669106 406.60917282 C414.17433919 408.6782443 414.17700954 410.74732912 414.18531418 412.81638527 C414.30309528 444.46438194 404.41283603 464.75959235 382.3040899 487.05435741 C380.3120847 489.05721663 378.31784369 491.05783275 376.32348633 493.05834961 C374.87674097 494.51301309 373.430172 495.96785201 371.98376465 497.42285156 C367.26632335 502.16629778 362.5436241 506.90449003 357.8203125 511.64208984 C356.18583857 513.28193081 354.55136989 514.92177701 352.91690636 516.56162834 C346.1152662 523.38485842 339.3121992 530.20666057 332.50540638 537.02475071 C322.79036008 546.75603607 313.08390523 556.4957132 303.38924676 566.24731117 C296.54760839 573.12774551 289.69632207 579.99847868 282.83789748 586.86218017 C278.75239016 590.95132527 274.67109891 595.0444724 270.60010719 599.1480732 C266.76886764 603.0095665 262.92571057 606.85880053 259.07346344 610.69933319 C257.6704072 612.1021702 256.27154141 613.50921438 254.87747002 614.92098045 C239.03520629 630.95315146 221.11329509 643.47536877 197.66943777 643.6649946 C196.83012578 643.66189739 195.9908138 643.65880019 195.12606812 643.65560913 C194.20593009 643.66014024 193.28579206 643.66467136 192.33777106 643.66933978 C189.28290825 643.68190653 186.22822549 643.68036842 183.17333984 643.67871094 C180.97125014 643.68470109 178.76916252 643.69150775 176.56707764 643.69906616 C170.60396446 643.71668559 164.64090874 643.72141989 158.67777205 643.72269773 C154.94580589 643.7241224 151.21385419 643.72839801 147.48189163 643.73369217 C135.11573612 643.75122751 122.74961113 643.76053408 110.38344364 643.75903122 C109.38563855 643.75891135 109.38563855 643.75891135 108.36767578 643.75878906 C107.36863535 643.75866642 107.36863535 643.75866642 106.34941228 643.7585413 C95.56816426 643.7577293 84.78705625 643.77685006 74.00584869 643.8050658 C62.90420701 643.83388805 51.80262293 643.84723581 40.70094168 643.84587824 C34.48092665 643.84537017 28.26107011 643.85096763 22.0410881 643.87223434 C16.185392 643.89170986 10.33000404 643.89167771 4.47429657 643.87720108 C2.3363029 643.87512329 0.19828947 643.87975176 -1.93967056 643.891922 C-29.08359645 644.03631637 -48.70498871 636.85559406 -68.16313171 617.69169617 C-70.87365079 615.00641318 -73.57147062 612.30862965 -76.26831055 609.60961914 C-77.76540318 608.11852038 -79.26290185 606.62782921 -80.76077271 605.13751221 C-84.80463069 601.11122858 -88.84206887 597.07856764 -92.87778831 593.04412818 C-95.40383141 590.51951148 -97.93129535 587.99632627 -100.45926857 585.47364235 C-109.29048179 576.66089723 -118.11654894 567.84303615 -126.93774414 559.02026367 C-135.14247697 550.81432858 -143.35830899 542.61962402 -151.57940739 534.43008775 C-158.65519099 527.38049697 -165.72319974 520.32317419 -172.7852605 513.25983649 C-176.99547854 509.04910995 -181.20870367 504.84150747 -185.42978477 500.64166832 C-189.39910844 496.69177886 -193.3586194 492.73230476 -197.31097794 488.76544189 C-198.75746731 487.31687018 -200.20733537 485.87166266 -201.66092491 484.43021584 C-218.4419922 467.78021909 -230.22011762 449.23479895 -230.34228635 424.82263374 C-230.34141987 424.00113775 -230.34055338 423.17964176 -230.33966064 422.33325195 C-230.34263177 421.4435565 -230.34560289 420.55386105 -230.34866405 419.63720512 C-230.35730869 416.66746955 -230.35885571 413.69777449 -230.36035156 410.72802734 C-230.36498282 408.5937237 -230.3700079 406.45942088 -230.37539673 404.32511902 C-230.38849512 398.53338908 -230.39496097 392.74167072 -230.39940739 386.94992828 C-230.40234292 383.32670436 -230.40644869 379.70348357 -230.41091156 376.08026123 C-230.42458124 364.73037735 -230.43424986 353.38050067 -230.43811345 342.03060913 C-230.44258966 328.95480657 -230.46011958 315.87910877 -230.48911405 302.80333805 C-230.51077794 292.67990183 -230.52082028 282.55649499 -230.52215457 272.43303585 C-230.52319944 266.39467778 -230.52903921 260.35641826 -230.54697418 254.31808472 C-230.56353583 248.63155818 -230.56557126 242.94520343 -230.55683517 237.25866127 C-230.55606905 235.1815272 -230.56035083 233.10438359 -230.57029343 231.02727318 C-230.69203842 203.98886263 -224.78505525 182.71117617 -205.39828646 163.05186713 C-203.28974811 160.93635775 -201.17180043 158.83055104 -199.0534668 156.72485352 C-197.52252938 155.18848614 -195.99244205 153.65127128 -194.46313477 152.11328125 C-190.33385719 147.96587316 -186.19215389 143.83109175 -182.04744697 139.69910979 C-177.69706784 135.35890986 -173.35651564 131.00889935 -169.01435852 126.66047668 C-161.72418595 119.36304279 -154.42565647 112.07404702 -147.12231445 104.78979492 C-138.69532527 96.38457953 -130.28285314 87.96504088 -121.87775964 79.53793448 C-114.64155197 72.28353946 -107.39753413 65.03701275 -100.14700347 57.796933 C-95.82501649 53.4811615 -91.50572849 49.16278194 -87.19348717 44.83727074 C-83.13870602 40.77088295 -79.07416471 36.7145038 -75.00208282 32.66544342 C-73.51483591 31.18345751 -72.03093021 29.69810925 -70.55075264 28.20906258 C-49.41702957 6.96047328 -29.71616952 -0.09156521 0 0 Z " fill="#B70F0A" transform="translate(276.19921875,30.61181640625)"/>
<path d="M0 0 C4.44069158 2.59040342 6.75764771 6.49105413 8.25 11.3125 C9.55114014 18.08924097 9.39210818 24.85522748 9.38371277 31.73568726 C9.38558244 33.10887356 9.38788376 34.48205934 9.39057809 35.85524428 C9.3966831 39.6187835 9.39656403 43.38230046 9.39538372 47.14584351 C9.39517938 51.20864706 9.40070153 55.27144353 9.40544128 59.33424377 C9.413741 67.28995016 9.41649581 75.24564914 9.41705366 83.2013595 C9.41752909 89.66850816 9.4195852 96.13565438 9.42275429 102.60280228 C9.4315586 120.94325247 9.43617395 139.28369681 9.43542381 157.62414913 C9.43538386 158.61249632 9.4353439 159.60084352 9.43530273 160.61914062 C9.43526185 161.60869604 9.43522097 162.59825145 9.43517885 163.6177934 C9.43477233 179.65796377 9.44434411 195.69811068 9.4584411 211.73827426 C9.47280565 228.21299179 9.47971126 244.68769787 9.47884732 261.16242182 C9.47851541 270.4098393 9.48126023 279.65723217 9.49202538 288.90464401 C9.50113135 296.77714709 9.50330478 304.6496144 9.49651595 312.52212046 C9.4932514 316.53738746 9.49319178 320.55258583 9.5018692 324.5678463 C9.50973781 328.24672069 9.50829912 331.92547208 9.49958507 335.60434349 C9.49732659 337.5588179 9.50487585 339.51329613 9.51282471 341.46775568 C9.47877189 350.15774388 9.14032414 358.80235935 4.25 366.3125 C0.29485931 369.80774061 -2.43607827 370.62766555 -7.67749023 370.50439453 C-10.84366103 370.21123748 -13.48761358 369.23303646 -16.4375 368.0625 C-17.10354248 367.80146484 -17.76958496 367.54042969 -18.45581055 367.27148438 C-20.89571132 366.30505974 -23.32332166 365.31166811 -25.75 364.3125 C-26.74161133 363.90451172 -27.73322266 363.49652344 -28.75488281 363.07617188 C-33.43422465 361.14599605 -38.11089344 359.20948844 -42.78344727 357.26293945 C-52.61311637 353.17171337 -62.48462231 349.19195023 -72.375 345.25 C-75.33475597 344.06931245 -78.29436288 342.88825161 -81.25390625 341.70703125 C-81.97319305 341.419953 -82.69247986 341.13287476 -83.43356323 340.83709717 C-94.56512235 336.39218785 -105.67693914 331.90148772 -116.75 327.3125 C-117.6457373 326.94431152 -118.54147461 326.57612305 -119.46435547 326.19677734 C-144.32601155 315.91393197 -144.32601155 315.91393197 -149.75 305.3125 C-150.65184343 302.6069697 -150.87864026 301.04184431 -150.8898077 298.26438618 C-150.89549894 297.43778187 -150.90119018 296.61117756 -150.90705389 295.75952464 C-150.90823376 294.85156538 -150.90941364 293.94360612 -150.91062927 293.00813293 C-150.91571709 292.04341228 -150.92080491 291.07869162 -150.92604691 290.084737 C-150.94179957 286.83749866 -150.95030388 283.5902826 -150.95874023 280.34301758 C-150.96827637 278.02060809 -150.97816743 275.69820003 -150.98838806 273.37579346 C-151.0197991 265.73622326 -151.04004189 258.09664208 -151.05859375 250.45703125 C-151.06189107 249.15798536 -151.06518839 247.85893947 -151.06858563 246.52052855 C-151.099366 234.27293379 -151.12623943 222.02533715 -151.14300442 209.77771473 C-151.14695384 206.94124658 -151.15095685 204.10477852 -151.1550293 201.26831055 C-151.15603766 200.56332983 -151.15704602 199.85834912 -151.15808494 199.13200536 C-151.17508813 187.71437404 -151.21619398 176.2969596 -151.26705229 164.87943415 C-151.31885073 153.15429253 -151.34794954 141.42926239 -151.3552013 129.70400733 C-151.36016113 123.12186586 -151.37527466 116.54010989 -151.4149456 109.95807838 C-151.4517796 103.76508767 -151.46023173 97.57270315 -151.44693947 91.37962341 C-151.44699347 89.10763819 -151.45731067 86.83562631 -151.4786911 84.56374168 C-151.50634535 81.45902399 -151.49687504 78.35652122 -151.47825623 75.25178528 C-151.49505115 74.35497962 -151.51184608 73.45817397 -151.52914995 72.53419238 C-151.42951689 65.87525149 -149.25688401 62.14149875 -144.75 57.3125 C-130.13888064 43.22517548 -104.84282976 37.26913324 -86.25654602 29.9005127 C-79.40476054 27.18153609 -72.57396114 24.41314925 -65.75 21.625 C-64.67645264 21.18663818 -63.60290527 20.74827637 -62.49682617 20.29663086 C-60.34734805 19.41848743 -58.19801467 18.53998961 -56.04882812 17.66113281 C-52.56961306 16.23875389 -49.08964107 14.81824285 -45.609375 13.3984375 C-44.42770752 12.91632813 -43.24604004 12.43421875 -42.02856445 11.9375 C-39.71012376 10.99299168 -37.39097088 10.05022927 -35.07104492 9.109375 C-30.36749182 7.20159629 -25.66875375 5.28987887 -21.00390625 3.2890625 C-20.32166992 3.00135986 -19.63943359 2.71365723 -18.93652344 2.41723633 C-17.2413191 1.7005951 -15.55193029 0.97023535 -13.86328125 0.23828125 C-9.17176703 -1.15681144 -4.78799489 -1.19699872 0 0 Z " fill="#FDFCFC" transform="translate(527.75,167.6875)"/>
<path d="M0 0 C10.3952544 8.34320418 18.90446647 17.49539352 25.0078125 29.4140625 C25.31799316 30.01943848 25.62817383 30.62481445 25.94775391 31.24853516 C42.25354123 63.76836369 39.35723634 102.54179254 28.4765625 136.3046875 C16.22615456 172.26306433 -7.92587161 202.38077457 -41.9921875 219.7265625 C-58.92522046 228.02819339 -76.66910763 231.97751864 -95.47436523 231.80517578 C-97.55844205 231.78903342 -99.64058882 231.80517768 -101.72460938 231.82421875 C-127.09615693 231.8655596 -150.08998865 223.08782219 -168.24609375 205.27734375 C-190.6417621 181.92595698 -194.65509632 152.34432826 -194.16958618 121.33441162 C-193.31823641 82.45971663 -173.84162829 42.83770156 -145.9609375 16.140625 C-107.08756795 -17.95070306 -44.63595549 -31.50057894 0 0 Z M-86.9921875 34.4140625 C-87.89710938 34.81496094 -88.80203125 35.21585937 -89.734375 35.62890625 C-97.70031072 39.52160855 -103.78821313 45.21880157 -109.9921875 51.4140625 C-110.724375 52.13464844 -111.4565625 52.85523438 -112.2109375 53.59765625 C-132.90815068 75.32151691 -138.57293221 105.50840548 -138.26953125 134.41015625 C-137.87510375 149.13348728 -133.68685278 164.71939722 -122.9921875 175.4140625 C-113.17082067 184.41255806 -100.7587279 185.22272006 -88.05859375 184.7890625 C-70.90651256 183.77395875 -56.33424691 173.85843938 -44.9921875 161.4140625 C-25.16051689 138.11735241 -17.10962723 107.59536525 -18.9921875 77.4140625 C-20.42732257 62.8298171 -24.81587454 48.66731439 -35.97265625 38.6328125 C-49.76360681 27.74943179 -71.36370737 26.97303987 -86.9921875 34.4140625 Z " fill="#000000" transform="translate(995.9921875,230.5859375)"/>
<path d="M0 0 C1.17438629 0.00456207 1.17438629 0.00456207 2.37249756 0.00921631 C24.2151494 0.13417745 46.25054551 3.27595784 65.375 14.4375 C60.66546862 34.50257016 55.94424643 54.56487164 51.21576309 74.62548351 C49.97125579 79.90581248 48.7279469 85.18642214 47.48540783 90.46721458 C45.36693546 99.47056735 43.24477598 108.47303746 41.11664104 117.47411156 C40.08742629 121.82761811 39.05982936 126.18149027 38.03646851 130.53637695 C30.61342503 162.11424833 30.61342503 162.11424833 27.06640625 174.62109375 C26.73761978 175.78390114 26.73761978 175.78390114 26.40219116 176.97019958 C19.16091126 201.63951927 5.79891859 224.80633663 -17.19018555 237.63818359 C-32.1386053 245.65519084 -48.52892764 249.54901496 -65.4609375 249.640625 C-66.71736557 249.64917511 -66.71736557 249.64917511 -67.99917603 249.65789795 C-69.76913204 249.66730529 -71.53910524 249.67386487 -73.30908203 249.67773438 C-75.95768793 249.68734645 -78.60548503 249.71837116 -81.25390625 249.75 C-95.69943067 249.84114882 -109.49449907 248.39313872 -123.1875 243.5 C-123.90228516 243.26087891 -124.61707031 243.02175781 -125.35351562 242.77539062 C-130.34316599 241.05779072 -134.94577189 238.87448832 -139.625 236.4375 C-138.91627089 231.68842926 -137.17324994 227.51646248 -135.3515625 223.109375 C-135.02715179 222.31976379 -134.70274109 221.53015259 -134.36849976 220.71661377 C-133.68338138 219.05483729 -132.9957164 217.39410872 -132.30566406 215.734375 C-131.24971066 213.18680194 -130.21061453 210.63275661 -129.171875 208.078125 C-128.50362846 206.46311746 -127.8343918 204.84851918 -127.1640625 203.234375 C-126.69983383 202.08446075 -126.69983383 202.08446075 -126.22622681 200.91131592 C-125.44181894 199.04967446 -124.5423095 197.23737442 -123.625 195.4375 C-120.25390131 194.31380044 -119.80118261 194.49904548 -116.66796875 195.765625 C-115.88357422 196.07113281 -115.09917969 196.37664062 -114.29101562 196.69140625 C-112.68107125 197.33842881 -111.0716641 197.98679031 -109.46289062 198.63671875 C-97.52093641 203.28241845 -85.83354097 204.95000344 -73.0625 204.875 C-71.85142578 204.89498047 -70.64035156 204.91496094 -69.39257812 204.93554688 C-57.5762636 204.92921784 -46.41468555 202.76150685 -37.625 194.4375 C-36.70267578 193.59251953 -36.70267578 193.59251953 -35.76171875 192.73046875 C-30.30948509 187.18483494 -28.0369188 180.71842343 -25.625 173.4375 C-25.24988281 172.31601562 -24.87476563 171.19453125 -24.48828125 170.0390625 C-24.06095703 168.75128906 -24.06095703 168.75128906 -23.625 167.4375 C-24.50542969 167.78683594 -25.38585938 168.13617188 -26.29296875 168.49609375 C-27.45441406 168.95113281 -28.61585937 169.40617188 -29.8125 169.875 C-30.96105469 170.32746094 -32.10960937 170.77992188 -33.29296875 171.24609375 C-40.2462571 173.73232229 -46.87174537 173.65452758 -54.1875 173.6875 C-55.86295898 173.7184375 -55.86295898 173.7184375 -57.57226562 173.75 C-73.03983934 173.82173368 -87.42543066 169.23798765 -98.85546875 158.43359375 C-113.92745303 141.43186313 -116.81121125 119.24848096 -115.625 97.4375 C-113.64164833 69.67057665 -101.65058457 44.79268186 -80.625 26.4375 C-69.17735394 17.39431328 -56.40024528 10.84747081 -42.625 6.125 C-41.96282471 5.89466064 -41.30064941 5.66432129 -40.6184082 5.42700195 C-27.26321102 1.1053166 -13.94587757 -0.11564856 0 0 Z M-50.625 62.4375 C-61.78967561 76.41019261 -64.80345376 93.97188604 -63.625 111.4375 C-62.44454016 118.86417252 -59.928194 123.86081927 -54.12109375 128.6875 C-46.57504272 133.54938523 -35.52246612 132.44279766 -27.06640625 130.70703125 C-21.52420901 129.01185232 -16.3458571 127.08190557 -12.625 122.4375 C-10.97920312 118.42996832 -10.06650157 114.29743613 -9.1171875 110.078125 C-8.82441925 108.86034363 -8.531651 107.64256226 -8.23001099 106.38787842 C-7.45575934 103.14929943 -6.70134906 99.90738067 -5.95629883 96.66204834 C-5.20722287 93.42056139 -4.43232555 90.18526903 -3.66015625 86.94921875 C-2.48233881 81.99903596 -1.32089784 77.04551163 -0.17480469 72.08789062 C0.76285584 68.03672553 1.72283139 63.99354956 2.72949219 59.95898438 C2.92509735 59.16627136 3.12070251 58.37355835 3.32223511 57.55682373 C3.82176728 55.54252607 4.3301224 53.53042177 4.83935547 51.51855469 C5.33716704 48.65511712 5.39071898 47.11659443 4.375 44.4375 C-17.4198659 43.71128378 -34.909702 45.63939748 -50.625 62.4375 Z " fill="#000000" transform="translate(1933.625,271.5625)"/>
<path d="M0 0 C1.20332977 0.00972839 1.20332977 0.00972839 2.43096924 0.01965332 C15.01592783 0.1240202 27.35412408 0.74792563 39.6875 3.4375 C40.37875977 3.58735352 41.07001953 3.73720703 41.78222656 3.89160156 C50.50886788 5.8610544 59.71109579 8.32022986 67.6875 12.4375 C69.0475868 16.5177604 67.91052699 19.67382757 66.92089844 23.72583008 C66.72103836 24.57184784 66.52117828 25.4178656 66.31526184 26.28952026 C65.6500279 29.09721493 64.97342157 31.90204298 64.296875 34.70703125 C63.83105854 36.66442866 63.36600204 38.62200706 62.90167236 40.57975769 C61.67354549 45.7496903 60.43599755 50.91732134 59.19622803 56.08447266 C57.46153469 63.32187393 55.73965813 70.5623369 54.01617432 77.80241394 C53.09894682 81.65533525 52.17832869 85.50742018 51.25482178 89.35884094 C43.29891211 122.59646575 42.21150165 149.32768757 51.6875 182.4375 C43.35652216 183.78576426 35.02328968 185.11930667 26.6875 186.4375 C25.88586426 186.56479492 25.08422852 186.69208984 24.25830078 186.82324219 C17.67646406 187.85879694 11.35551576 188.70422063 4.6875 188.4375 C2.3775 183.8175 0.0675 179.1975 -2.3125 174.4375 C-4.313125 175.79875 -6.31375 177.16 -8.375 178.5625 C-25.9174113 190.11083523 -45.19679243 193.05120905 -65.96240234 190.05517578 C-81.06608192 186.84456137 -93.4400587 177.9334399 -102 165.25 C-115.48008119 142.89578792 -116.73935899 113.44260862 -111.34765625 88.33984375 C-111.01289668 87.03637575 -110.66740449 85.73562773 -110.3125 84.4375 C-110.11382324 83.71062988 -109.91514648 82.98375977 -109.71044922 82.23486328 C-104.01512053 62.19669184 -93.81497147 45.42909361 -79.3125 30.4375 C-78.59964844 29.69886719 -77.88679688 28.96023438 -77.15234375 28.19921875 C-56.29615173 8.05850501 -28.41222925 -0.44610631 0 0 Z M-35.3125 53.4375 C-36.05242188 53.98921875 -36.79234375 54.5409375 -37.5546875 55.109375 C-52.60819428 67.29802755 -60.10844297 86.99833751 -62.125 105.75 C-62.76752404 116.80676787 -62.30491791 131.61755771 -54.671875 140.3046875 C-47.99130929 146.37528852 -41.32181722 147.13406313 -32.46875 146.8828125 C-26.32361381 146.4346122 -21.32965676 143.90597537 -16.3125 140.4375 C-15.71791992 140.10008789 -15.12333984 139.76267578 -14.51074219 139.41503906 C-11.16326672 137.18048144 -9.58902031 135.34567435 -8.40307617 131.45068359 C-7.82994118 128.19588129 -7.35714971 124.95886941 -6.9619751 121.67907715 C-4.78347073 103.88771592 -0.71046501 86.57382999 3.5625 69.1875 C4.0139035 67.34502686 4.0139035 67.34502686 4.47442627 65.46533203 C6.19508456 58.45177539 7.93162373 51.44232176 9.6875 44.4375 C-5.67322408 39.31725864 -22.91563767 43.92879556 -35.3125 53.4375 Z " fill="#000000" transform="translate(2320.3125,271.5625)"/>
<path d="M0 0 C1.31742188 0.00829834 2.63484375 0.01659668 3.9921875 0.02514648 C13.28123417 0.18683021 21.40378695 0.83769064 30.0625 4.4375 C31.26519531 4.93507813 32.46789063 5.43265625 33.70703125 5.9453125 C48.68389457 12.5966328 59.18978094 23.94538214 65.7109375 38.8359375 C69.26090306 48.29567231 71.69247818 58.31820769 72.0625 68.4375 C72.10246094 69.38238281 72.14242188 70.32726562 72.18359375 71.30078125 C72.89376506 104.84593174 61.77296856 138.30160525 38.60205078 162.86669922 C22.50421707 179.29128883 0.55726834 190.08462915 -22.55859375 190.87109375 C-25.16395689 190.89458917 -27.76961139 190.89547678 -30.375 190.875 C-31.054487 190.87162628 -31.733974 190.86825256 -32.43405151 190.86477661 C-42.45024452 190.79275793 -51.58570994 190.36897393 -60.9375 186.4375 C-62.13890625 185.93992187 -63.3403125 185.44234375 -64.578125 184.9296875 C-80.04827835 178.06769508 -89.94190017 166.41560202 -96.58203125 151.0703125 C-107.37318672 122.1487719 -103.08697038 88.88089485 -90.89697266 61.06298828 C-78.90774125 35.41889634 -58.12340413 14.07040265 -31.29272461 4.1784668 C-20.92371944 0.91631994 -10.82666304 -0.08832131 0 0 Z M-29.9375 55.4375 C-30.92556641 56.35595703 -30.92556641 56.35595703 -31.93359375 57.29296875 C-45.88709528 71.35526951 -50.25419983 92.09326198 -50.4375 111.1875 C-50.34647602 122.27422018 -49.90751476 133.83010234 -41.5390625 142.13671875 C-34.59139538 147.7795801 -26.53233515 147.20570293 -17.9375 146.4375 C-8.16869045 144.52178074 -0.75990992 137.43326739 5.13671875 129.7265625 C6.92308615 127.021824 8.52671776 124.29139456 10.0625 121.4375 C10.52269531 120.58671875 10.98289062 119.7359375 11.45703125 118.859375 C20.53003515 100.54890186 23.51090866 76.97739492 17.0625 57.4375 C14.56097642 51.99025707 11.31912347 47.39342445 5.66015625 45.02734375 C-8.63539505 41.78128624 -19.69992857 45.28134067 -29.9375 55.4375 Z " fill="#000000" transform="translate(1458.9375,271.5625)"/>
<path d="M0 0 C0.81808136 -0.01062469 1.63616272 -0.02124939 2.47903442 -0.03219604 C21.14009397 -0.21808699 39.37723581 2.55150607 53.8125 15.4375 C64.73051811 27.18141985 68.35151877 41.90873662 68.4375 57.5 C68.47037109 58.49 68.50324219 59.48 68.53710938 60.5 C68.71260286 86.53685148 59.01517343 113.80125316 52.98016357 138.95178223 C51.9950926 143.06416327 51.01619297 147.17800375 50.03725052 151.29184723 C49.09287221 155.25740255 48.14500436 159.22211704 47.19600677 163.18656921 C46.74365492 165.07785535 46.29231964 166.96938492 45.84201813 168.86116028 C45.21882925 171.47665665 44.59103871 174.09100416 43.96191406 176.70507812 C43.77699905 177.48507172 43.59208405 178.26506531 43.40156555 179.06869507 C42.11434197 184.38565803 42.11434197 184.38565803 41 185.5 C39.37325222 185.59340434 37.74245949 185.61745171 36.11303711 185.61352539 C35.07203354 185.61344986 34.03102997 185.61337433 32.95848083 185.61329651 C31.8262056 185.60813522 30.69393036 185.60297394 29.52734375 185.59765625 C27.79817467 185.59553383 27.79817467 185.59553383 26.03407288 185.59336853 C22.33518936 185.58775005 18.63636536 185.57519442 14.9375 185.5625 C12.43684983 185.55748738 9.93619871 185.55292406 7.43554688 185.54882812 C1.29034412 185.53777462 -4.85482369 185.52101852 -11 185.5 C-9.47263023 175.95342412 -7.2030305 166.58792129 -4.96055603 157.19075012 C-4.26820225 154.28906635 -3.57951883 151.38653212 -2.89172363 148.48376465 C-1.18371866 141.27859716 0.5304592 134.0749012 2.2444458 126.87115479 C3.69634103 120.76789479 5.14585886 114.6640794 6.59230042 108.55952454 C7.26683921 105.71697792 7.94480313 102.87526298 8.6229248 100.03356934 C15.25266582 76.4054823 15.25266582 76.4054823 12.5 52.6875 C9.81997705 48.8265808 6.44458707 46.85913339 2 45.5 C-2.84641533 45.03002487 -7.63685172 45.12150218 -12.5 45.25 C-13.799375 45.26804687 -15.09875 45.28609375 -16.4375 45.3046875 C-19.6258118 45.35157444 -22.81237998 45.42071461 -26 45.5 C-26.32034966 47.07769165 -26.32034966 47.07769165 -26.64717102 48.68725586 C-29.63312157 63.21514448 -33.04643015 77.63509255 -36.48046875 92.0625 C-37.10029451 94.67370624 -37.7199563 97.28495092 -38.33943176 99.89624023 C-39.62787273 105.32575206 -40.91817406 110.75481897 -42.2097168 116.18359375 C-43.70146075 122.45395198 -45.19050377 128.72494687 -46.67808837 134.99629307 C-48.11734461 141.06374743 -49.55815014 147.13083274 -50.99978065 153.19772339 C-51.61055224 155.76854275 -52.2209753 158.33944493 -52.83104515 160.91043091 C-53.6792157 164.4835812 -54.52916496 168.05630356 -55.37963867 171.62890625 C-55.6315799 172.69165771 -55.88352112 173.75440918 -56.14309692 174.84936523 C-56.48988243 176.30366943 -56.48988243 176.30366943 -56.84367371 177.78735352 C-57.04403827 178.63008316 -57.24440283 179.47281281 -57.45083904 180.34107971 C-57.89346205 182.08116662 -58.43221328 183.79663984 -59 185.5 C-76.16 185.5 -93.32 185.5 -111 185.5 C-109.87500773 175.37506955 -109.87500773 175.37506955 -108.84608459 171.14466858 C-108.4996843 169.70260796 -108.4996843 169.70260796 -108.14628601 168.23141479 C-107.89442032 167.20766754 -107.64255463 166.18392029 -107.38305664 165.12915039 C-107.11612 164.02487198 -106.84918335 162.92059357 -106.57415771 161.78285217 C-105.69137552 158.13649889 -104.80075848 154.49210668 -103.91015625 150.84765625 C-103.28484292 148.27082865 -102.65998936 145.69389389 -102.03575134 143.11680603 C-100.55399111 137.00369028 -99.06672086 130.89192969 -97.5773043 124.78067535 C-95.43553152 115.99173601 -93.30190882 107.2008185 -91.16820335 98.40991783 C-90.84613631 97.08304163 -90.52406714 95.75616594 -90.20199585 94.42929077 C-90.04331005 93.77549073 -89.88462424 93.12169068 -89.72112978 92.44807851 C-88.76701641 88.51774779 -87.81145617 84.5877721 -86.85475528 80.65807045 C-83.83031253 68.23400913 -80.82211457 55.80697612 -77.89794922 43.35888672 C-77.66210208 42.35713504 -77.42625494 41.35538336 -77.18326092 40.32327557 C-76.10235296 35.72995064 -75.02753125 31.13537877 -73.96461487 26.53785706 C-73.5943887 24.95804741 -73.22395516 23.37828634 -72.85327148 21.79858398 C-72.69273474 21.09264288 -72.53219799 20.38670177 -72.36679649 19.65936852 C-71.60251672 16.42813492 -70.86846275 14.30269413 -69 11.5 C-66.96655273 10.58032227 -66.96655273 10.58032227 -64.43359375 9.81640625 C-63.48734131 9.53031494 -62.54108887 9.24422363 -61.56616211 8.94946289 C-40.95165432 3.10533438 -21.40636477 0.14810313 0 0 Z " fill="#000000" transform="translate(2113,271.5)"/>
<path d="M0 0 C2.29031875 0.01610838 4.57887402 0.00002629 6.86914062 -0.01904297 C20.14891978 -0.03930631 32.93353857 1.63588393 45.41601562 6.39111328 C46.104375 6.63861328 46.79273437 6.88611328 47.50195312 7.14111328 C51.57960512 8.63521477 55.43740427 10.37426995 59.29101562 12.39111328 C58.62493353 16.94689463 56.90018481 20.90254422 55.01757812 25.06298828 C54.53096207 26.14752289 54.53096207 26.14752289 54.03451538 27.25396729 C53.34968023 28.77473167 52.66201088 30.29422257 51.97167969 31.8125 C50.91548961 34.14227357 49.87642632 36.47920762 48.83789062 38.81689453 C48.16965313 40.29522664 47.50041674 41.77310772 46.83007812 43.25048828 C46.52059235 43.95147644 46.21110657 44.6524646 45.89224243 45.37469482 C45.10420693 47.08550475 44.20565112 48.74450693 43.29101562 50.39111328 C39.8850774 51.52642602 39.35365243 51.2908428 36.15820312 50.02783203 C35.35125 49.7178125 34.54429687 49.40779297 33.71289062 49.08837891 C32.87242187 48.75515625 32.03195313 48.42193359 31.16601562 48.07861328 C20.88005503 44.03074708 11.94738612 42.03075865 0.85351562 42.01611328 C-0.11908203 41.99162109 -1.09167969 41.96712891 -2.09375 41.94189453 C-8.84254472 41.91484525 -14.84750281 42.85145461 -20.70898438 46.39111328 C-23.9690482 49.97750658 -24.82041874 53.59943575 -24.70898438 58.39111328 C-22.92541602 64.76100028 -18.06652829 67.14320595 -12.70898438 70.39111328 C-9.56744036 72.0747356 -6.36501625 73.61100721 -3.14648438 75.14111328 C32.72150577 92.67010399 32.72150577 92.67010399 39.10351562 111.14111328 C39.53334798 112.54783735 39.92936787 113.96533652 40.29101562 115.39111328 C40.4740625 116.10783203 40.65710937 116.82455078 40.84570312 117.56298828 C43.43304602 133.99488524 41.04456192 149.71264594 31.29101562 163.39111328 C19.52952266 179.28502269 -0.15581099 186.94961835 -19.13134766 189.98535156 C-25.57287006 190.71592412 -32.01163622 190.72455726 -38.48852539 190.70678711 C-40.87563412 190.70364076 -43.26148206 190.72712409 -45.6484375 190.75244141 C-67.52406704 190.84292335 -87.50187837 185.80496607 -106.70898438 175.39111328 C-106.03057389 170.78240737 -104.29258177 166.73397668 -102.43554688 162.50048828 C-101.94893082 161.38265961 -101.94893082 161.38265961 -101.45248413 160.24224854 C-100.76755148 158.67448593 -100.07988361 157.10791579 -99.38964844 155.54248047 C-98.33353753 153.14009683 -97.29446388 150.73079517 -96.25585938 148.32080078 C-95.58761903 146.79691099 -94.91838256 145.27345753 -94.24804688 143.75048828 C-93.9385611 143.02762634 -93.62907532 142.3047644 -93.31021118 141.55999756 C-92.52345697 139.7989087 -91.62455829 138.08880012 -90.70898438 136.39111328 C-87.15242178 135.20559241 -86.72798592 135.57027443 -83.49804688 137.15673828 C-82.66402344 137.55248047 -81.83 137.94822266 -80.97070312 138.35595703 C-79.25060619 139.19434502 -77.53179108 140.03536952 -75.81445312 140.87939453 C-64.44548846 146.26105056 -53.46478676 147.89357899 -40.95898438 147.76611328 C-39.80527344 147.77771484 -38.6515625 147.78931641 -37.46289062 147.80126953 C-29.03758396 147.77244864 -22.11583721 146.46231189 -14.70898438 142.39111328 C-12.35235726 139.04222211 -11.91389755 135.42107238 -11.70898438 131.39111328 C-13.46438744 124.72058165 -17.00064241 121.99759414 -22.70898438 118.39111328 C-28.02568066 115.61875755 -33.47433509 113.13369692 -38.9284668 110.64648438 C-54.77005875 103.38770985 -69.20609233 94.3460221 -75.70898438 77.39111328 C-80.23862435 63.25673932 -78.42022138 46.94485697 -72.42382812 33.51220703 C-71.0010938 30.97981919 -69.46401346 28.70491845 -67.70898438 26.39111328 C-66.75378906 25.13041016 -66.75378906 25.13041016 -65.77929688 23.84423828 C-49.76320964 4.48413283 -23.87441504 -0.19878356 0 0 Z " fill="#000000" transform="translate(2606.708984375,271.60888671875)"/>
<path d="M0 0 C2.29031875 0.01610838 4.57887402 0.00002629 6.86914062 -0.01904297 C20.14891978 -0.03930631 32.93353857 1.63588393 45.41601562 6.39111328 C46.104375 6.63861328 46.79273438 6.88611328 47.50195312 7.14111328 C51.57960512 8.63521477 55.43740427 10.37426995 59.29101562 12.39111328 C58.62493353 16.94689463 56.90018481 20.90254422 55.01757812 25.06298828 C54.53096207 26.14752289 54.53096207 26.14752289 54.03451538 27.25396729 C53.34968023 28.77473167 52.66201088 30.29422257 51.97167969 31.8125 C50.91548961 34.14227357 49.87642632 36.47920762 48.83789062 38.81689453 C48.16965313 40.29522664 47.50041674 41.77310772 46.83007812 43.25048828 C46.52059235 43.95147644 46.21110657 44.6524646 45.89224243 45.37469482 C45.10420693 47.08550475 44.20565112 48.74450693 43.29101562 50.39111328 C39.8850774 51.52642602 39.35365243 51.2908428 36.15820312 50.02783203 C35.35125 49.7178125 34.54429687 49.40779297 33.71289062 49.08837891 C32.87242187 48.75515625 32.03195312 48.42193359 31.16601562 48.07861328 C20.88005503 44.03074708 11.94738612 42.03075865 0.85351562 42.01611328 C-0.11908203 41.99162109 -1.09167969 41.96712891 -2.09375 41.94189453 C-8.84254472 41.91484525 -14.84750281 42.85145461 -20.70898438 46.39111328 C-23.9690482 49.97750658 -24.82041874 53.59943575 -24.70898438 58.39111328 C-22.92541602 64.76100028 -18.06652829 67.14320595 -12.70898438 70.39111328 C-9.56744036 72.0747356 -6.36501625 73.61100721 -3.14648438 75.14111328 C32.72150577 92.67010399 32.72150577 92.67010399 39.10351562 111.14111328 C39.53334798 112.54783735 39.92936787 113.96533652 40.29101562 115.39111328 C40.4740625 116.10783203 40.65710937 116.82455078 40.84570312 117.56298828 C43.43304602 133.99488524 41.04456192 149.71264594 31.29101562 163.39111328 C19.52952266 179.28502269 -0.15581099 186.94961835 -19.13134766 189.98535156 C-25.57287006 190.71592412 -32.01163622 190.72455726 -38.48852539 190.70678711 C-40.87563412 190.70364076 -43.26148206 190.72712409 -45.6484375 190.75244141 C-67.52406704 190.84292335 -87.50187837 185.80496607 -106.70898438 175.39111328 C-106.03057389 170.78240737 -104.29258177 166.73397668 -102.43554688 162.50048828 C-101.94893082 161.38265961 -101.94893082 161.38265961 -101.45248413 160.24224854 C-100.76755148 158.67448593 -100.07988361 157.10791579 -99.38964844 155.54248047 C-98.33353753 153.14009683 -97.29446388 150.73079517 -96.25585938 148.32080078 C-95.58761903 146.79691099 -94.91838256 145.27345753 -94.24804688 143.75048828 C-93.9385611 143.02762634 -93.62907532 142.3047644 -93.31021118 141.55999756 C-92.52345697 139.7989087 -91.62455829 138.08880012 -90.70898438 136.39111328 C-87.15242178 135.20559241 -86.72798592 135.57027443 -83.49804688 137.15673828 C-82.66402344 137.55248047 -81.83 137.94822266 -80.97070312 138.35595703 C-79.25060619 139.19434502 -77.53179108 140.03536952 -75.81445312 140.87939453 C-64.44548846 146.26105056 -53.46478676 147.89357899 -40.95898438 147.76611328 C-39.80527344 147.77771484 -38.6515625 147.78931641 -37.46289062 147.80126953 C-29.03758396 147.77244864 -22.11583721 146.46231189 -14.70898438 142.39111328 C-12.35235726 139.04222211 -11.91389755 135.42107238 -11.70898438 131.39111328 C-13.46438744 124.72058165 -17.00064241 121.99759414 -22.70898438 118.39111328 C-28.02568066 115.61875755 -33.47433509 113.13369692 -38.9284668 110.64648438 C-54.77005875 103.38770985 -69.20609233 94.3460221 -75.70898438 77.39111328 C-80.23862435 63.25673932 -78.42022138 46.94485697 -72.42382812 33.51220703 C-71.0010938 30.97981919 -69.46401346 28.70491845 -67.70898438 26.39111328 C-66.75378906 25.13041016 -66.75378906 25.13041016 -65.77929688 23.84423828 C-49.76320964 4.48413283 -23.87441504 -0.19878356 0 0 Z " fill="#000000" transform="translate(1643.708984375,271.60888671875)"/>
<path d="M0 0 C-3.67850795 17.82661545 -8.42847384 35.38617862 -13 53 C5.81 53 24.62 53 44 53 C40.7 66.86 37.4 80.72 34 95 C5.785 95.495 5.785 95.495 -23 96 C-25.8202737 107.608171 -25.8202737 107.608171 -28.63867188 119.21679688 C-29.7880753 123.95285926 -30.93769627 128.68886809 -32.08862305 133.42456055 C-33.01670064 137.24336048 -33.94379392 141.06239816 -34.87021065 144.88160133 C-35.22349705 146.33729339 -35.57713562 147.79290002 -35.93113518 149.24841881 C-36.42760285 151.28997933 -36.92280774 153.33184236 -37.41772461 155.3737793 C-37.69974228 156.53515915 -37.98175995 157.696539 -38.27232361 158.89311218 C-40.40331387 167.99159025 -42.04953623 177.64214693 -37 186 C-30.7348304 192.10029672 -24.50260201 192.38580936 -16.1875 192.375 C-15.16881836 192.37628906 -14.15013672 192.37757813 -13.10058594 192.37890625 C-5.30982893 192.2710757 1.57223719 191.09875072 9.015625 188.875 C12 188 12 188 15 188 C16.38701208 195.9531863 17.35458305 203.90405069 18.125 211.9375 C18.25624268 213.28654419 18.25624268 213.28654419 18.39013672 214.6628418 C18.80441835 219.12616376 19.10352401 223.51149457 19 228 C13.0792209 230.67573671 7.10317196 232.6192127 0.8125 234.1875 C0.14798828 234.35411133 -0.51652344 234.52072266 -1.20117188 234.69238281 C-8.05180642 236.34891659 -14.73781475 237.16172663 -21.77734375 237.23828125 C-22.50635391 237.246353 -23.23536407 237.25442474 -23.98646545 237.26274109 C-25.52521451 237.27649686 -27.06399299 237.28725657 -28.6027832 237.29516602 C-30.14324184 237.30660307 -31.6836635 237.32692131 -33.22387695 237.35668945 C-50.28249301 237.68505726 -67.16463234 235.30959927 -80.3125 223.375 C-90.77729034 212.0738842 -93.80195349 196.80681697 -93.26945496 181.84898376 C-92.53877457 165.8006268 -88.87566589 150.08215904 -85.10546875 134.52734375 C-84.62111184 132.49768487 -84.13767282 130.46780676 -83.65507507 128.43772888 C-82.63576104 124.15609023 -81.61119026 119.87575996 -80.5824585 115.59637451 C-78.99278375 108.97905823 -77.4213975 102.35748777 -75.85400391 95.73486328 C-72.95068978 83.47226625 -70.03647236 71.2122863 -67.11920166 58.95300293 C-65.74355998 53.17129033 -64.36890115 47.38934404 -62.99414062 41.60742188 C-60.33034709 30.40472897 -57.66553416 19.20227886 -55 8 C-53.5915856 7.68166606 -52.18283137 7.36483541 -50.77394104 7.0486145 C-49.98947885 6.87201357 -49.20501665 6.69541264 -48.39678288 6.51346016 C-44.64819371 5.71040402 -40.87501932 5.09470241 -37.08984375 4.4921875 C-36.27810196 4.36184113 -35.46636017 4.23149475 -34.63002014 4.09719849 C-32.92863268 3.82519333 -31.22700429 3.5546912 -29.52514648 3.28564453 C-26.93950359 2.87531796 -24.35552989 2.45540998 -21.77148438 2.03515625 C-20.10686435 1.77024502 -18.44215366 1.50590277 -16.77734375 1.2421875 C-15.63482399 1.05473465 -15.63482399 1.05473465 -14.46922302 0.86349487 C-9.58803349 0.10461931 -4.94037982 -0.11112972 0 0 Z " fill="#000000" transform="translate(1312,224)"/>
<path d="M0 0 C1.68754864 1.12097931 1.68754864 1.12097931 3 3 C3.37473011 5.84392548 3.37473011 5.84392548 3.3742218 9.37683105 C3.37819621 10.02656246 3.38217061 10.67629386 3.38626546 11.34571409 C3.39590435 13.52692137 3.38406142 15.7074826 3.37231445 17.88867188 C3.37474191 19.45073184 3.37846077 21.01279025 3.38337708 22.57484436 C3.39279613 26.8206832 3.38335219 31.06629192 3.37004495 35.31211281 C3.3587437 39.7510037 3.36283693 44.18988304 3.36479187 48.62878418 C3.36567527 56.08377856 3.35458494 63.53868209 3.33618164 70.99365234 C3.31501331 79.61820201 3.31150387 88.24261855 3.3177436 96.86718893 C3.32343426 105.15655879 3.31779512 113.44588167 3.30657005 121.73524475 C3.30192011 125.26628995 3.30105192 128.79730645 3.3031559 132.32835388 C3.30503673 136.48486741 3.29695075 140.64124504 3.2810955 144.79772758 C3.27684559 146.32516861 3.27600684 147.85262341 3.27878571 149.38006783 C3.28199811 151.46125168 3.27294995 153.5420271 3.26069641 155.62316895 C3.25761711 157.37195721 3.25761711 157.37195721 3.25447559 159.15607452 C3 162 3 162 1 165 C-3.05279036 165.91096546 -7.25136952 165.78725683 -11.05957031 164.07275391 C-13.02656229 162.7567648 -14.81793027 161.34052477 -16.625 159.8125 C-17.29958252 159.27512207 -17.97416504 158.73774414 -18.66918945 158.18408203 C-20.79903169 156.47872833 -22.89971775 154.74156707 -25 153 C-26.37471661 151.88476155 -27.75100199 150.77145388 -29.12890625 149.66015625 C-31.82485805 147.48148858 -34.51100305 145.29150931 -37.19140625 143.09375 C-41.6523376 139.4505252 -46.21497794 135.95120673 -50.79296875 132.45703125 C-55.98430911 128.4920672 -61.10329566 124.43412666 -66.23388672 120.39111328 C-68.57164989 118.54972891 -70.91169601 116.71126001 -73.25195312 114.87304688 C-75.00287577 113.49774115 -76.75339042 112.12191723 -78.50390625 110.74609375 C-80.82280124 108.92396622 -83.14322515 107.10381206 -85.46484375 105.28515625 C-86.0379126 104.83575684 -86.61098145 104.38635742 -87.20141602 103.92333984 C-88.35345413 103.02030786 -89.50627965 102.11827946 -90.65991211 101.21728516 C-93.81967831 98.74218674 -96.94443369 96.23198896 -100.0390625 93.67578125 C-100.71074463 93.125271 -101.38242676 92.57476074 -102.07446289 92.00756836 C-103.36905935 90.94445077 -104.65766579 89.87398298 -105.93920898 88.79516602 C-110.42063837 84.94026799 -110.42063837 84.94026799 -116 84 C-118.6511929 85.66215723 -120.85148688 87.736248 -123.125 89.875 C-124.46506726 91.08713098 -125.80621973 92.29806325 -127.1484375 93.5078125 C-128.13215332 94.4054834 -128.13215332 94.4054834 -129.13574219 95.32128906 C-131.60809824 97.5475751 -134.16474835 99.65646768 -136.75 101.75 C-137.62785156 102.4615625 -138.50570312 103.173125 -139.41015625 103.90625 C-140.26480469 104.5971875 -141.11945313 105.288125 -142 106 C-143.72997757 107.4156763 -145.45912237 108.8323708 -147.1875 110.25 C-149.1248107 111.83356495 -151.06233138 113.41687303 -153 115 C-153.60505371 115.4954834 -154.21010742 115.9909668 -154.83349609 116.50146484 C-159.53986222 120.35404713 -164.26206399 124.1863116 -169 128 C-169.62326172 128.50337891 -170.24652344 129.00675781 -170.88867188 129.52539062 C-172.62646445 130.92273299 -174.37365845 132.3071967 -176.125 133.6875 C-177.11757812 134.47511719 -178.11015625 135.26273438 -179.1328125 136.07421875 C-182.08417654 138.05653819 -184.54634638 139.18202941 -188 140 C-191 139 -191 139 -192.17033386 137.07142639 C-193.36386736 132.652962 -193.28645078 128.41522317 -193.2746582 123.85717773 C-193.27976913 122.83874786 -193.28488007 121.82031799 -193.29014587 120.77102661 C-193.3040334 117.40848904 -193.30308607 114.04615656 -193.30078125 110.68359375 C-193.3046679 108.34619572 -193.30900251 106.00879839 -193.31376648 103.67140198 C-193.32122635 98.77480783 -193.32093853 93.87828579 -193.31567383 88.98168945 C-193.30987169 82.70113357 -193.3268295 76.42087187 -193.3500185 70.14036465 C-193.36473368 65.31486785 -193.36563069 60.48944233 -193.36250877 55.66392708 C-193.36302284 53.34783405 -193.36827653 51.03173712 -193.37832069 48.71566582 C-193.39062813 45.48139034 -193.38392799 42.24769363 -193.37231445 39.01342773 C-193.37995819 38.05383652 -193.38760193 37.0942453 -193.39547729 36.10557556 C-193.38846298 35.22381653 -193.38144867 34.3420575 -193.3742218 33.43357849 C-193.37438954 32.66945365 -193.37455729 31.90532881 -193.37473011 31.11804867 C-192.90301731 28.45183464 -191.7417408 27.03225311 -190 25 C-183.45516075 25.28712843 -180.28009202 27.63705715 -175.4375 31.875 C-174.01916844 33.07272774 -172.5998811 34.26932449 -171.1796875 35.46484375 C-170.47553711 36.06409668 -169.77138672 36.66334961 -169.04589844 37.28076172 C-166.1121062 39.74612746 -163.09333376 42.09337386 -160.0625 44.4375 C-152.56265013 50.28440111 -145.24476384 56.34849847 -137.91992188 62.41210938 C-130.33905683 68.68193978 -122.69658419 74.87278439 -115 81 C-109.93718904 79.44221201 -106.47906713 76.34822776 -102.5 73 C-101.06622164 71.81375222 -99.63131165 70.62887096 -98.1953125 69.4453125 C-97.48536133 68.85911133 -96.77541016 68.27291016 -96.04394531 67.66894531 C-93.19834196 65.34542112 -90.29750005 63.10056478 -87.375 60.875 C-81.12390326 56.10381766 -74.93803652 51.25414799 -68.76171875 46.38671875 C-67.02010212 45.01582318 -65.27612115 43.64800009 -63.53125 42.28125 C-57.47249378 37.53360248 -51.43931987 32.75696828 -45.4375 27.9375 C-39.74893706 23.3730375 -34.00937636 18.88493159 -28.2109375 14.4609375 C-25.95022044 12.73576353 -23.70896647 10.98821242 -21.4765625 9.2265625 C-20.60378662 8.54231201 -20.60378662 8.54231201 -19.71337891 7.84423828 C-18.09782716 6.57675069 -16.48628116 5.30416212 -14.875 4.03125 C-9.9217437 0.53166674 -6.08822501 -0.56372454 0 0 Z " fill="#FDFBFB" transform="translate(346,270)"/>
<path d="M0 0 C0.99 0.99 0.99 0.99 2 2 C-0.3760869 7.53952295 -2.76067377 13.07527534 -5.15332031 18.60766602 C-5.96656005 20.49141139 -6.77744081 22.37617695 -7.5859375 24.26196289 C-8.74645624 26.96770664 -9.91532631 29.6697039 -11.0859375 32.37109375 C-11.62823502 33.64296791 -11.62823502 33.64296791 -12.18148804 34.9405365 C-12.52168976 35.72127029 -12.86189148 36.50200409 -13.21240234 37.30639648 C-13.50996429 37.99700668 -13.80752625 38.68761688 -14.11410522 39.39915466 C-15 41 -15 41 -17 42 C-18.91135841 41.33804848 -20.82009463 40.66722911 -22.71240234 39.95263672 C-37.60585218 34.45764399 -55.28258615 33.01451544 -70.3828125 38.7421875 C-83.73098005 45.15727698 -93.0915848 55.54202841 -98.2890625 69.44921875 C-103.11126686 84.66171235 -105.51920127 104.73302427 -99.1328125 119.828125 C-94.8902956 127.96205395 -90.24448692 132.62735095 -81.57104492 135.38256836 C-77.0587499 136.46618759 -72.62142606 136.48508727 -68 136.4375 C-66.99904297 136.43282715 -65.99808594 136.4281543 -64.96679688 136.42333984 C-55.89506188 136.24532079 -47.66022248 134.57924017 -39 132 C-36.66711729 131.33175816 -34.33384468 130.66487436 -32 130 C-31.56566995 134.21277048 -31.13877255 138.4262139 -30.71826172 142.64038086 C-30.57471291 144.06896448 -30.42925902 145.49735818 -30.28173828 146.92553711 C-29.41838466 155.29771799 -28.75804154 163.57066009 -29 172 C-41.2667175 177.31788527 -54.21204408 181.09263746 -67.64453125 181.23828125 C-68.37258469 181.246353 -69.10063812 181.25442474 -69.85075378 181.26274109 C-71.39128286 181.27651884 -72.93184166 181.28726896 -74.47241211 181.29516602 C-76.01287094 181.30657682 -77.55329376 181.32685124 -79.09350586 181.35668945 C-93.23948165 181.62975423 -107.59689642 180.21236787 -120.3125 173.4375 C-121.2859436 172.93367798 -121.2859436 172.93367798 -122.27905273 172.41967773 C-138.78348748 163.41596803 -149.00163643 148.48909264 -154.25 130.75 C-162.32205994 102.03463924 -156.66523518 69.10168402 -142.67163086 43.1328125 C-138.52634021 35.8152719 -133.49637771 29.34387308 -128 23 C-127.34515625 22.24332031 -126.6903125 21.48664063 -126.015625 20.70703125 C-95.59577396 -11.85780929 -39.45589758 -18.83122384 0 0 Z " fill="#000000" transform="translate(1211,281)"/>
<path d="M0 0 C-2.7720144 13.601213 -5.88725696 27.09328402 -9.19140625 40.57421875 C-9.6951701 42.63949264 -10.19862015 44.70484309 -10.70178223 46.77026367 C-11.76794077 51.14530099 -12.83559357 55.51996974 -13.90432739 59.89437866 C-15.58062658 66.75816633 -17.25010205 73.62360166 -18.91772461 80.48950195 C-19.19702851 81.63944484 -19.47633242 82.78938772 -19.76410007 83.97417736 C-20.33002923 86.30448386 -20.89591567 88.63480074 -21.46175957 90.96512794 C-22.87787182 96.79713257 -24.29441508 102.62903249 -25.7109375 108.4609375 C-25.98753676 109.59987111 -26.26413603 110.73880472 -26.54911709 111.91225147 C-27.87930314 117.38891129 -29.21031336 122.86536791 -30.54345703 128.34130859 C-33.10313299 138.85570547 -35.6564502 149.37153555 -38.18534756 159.89338398 C-39.21861828 164.19153793 -40.2564437 168.48845739 -41.306427 172.78256226 C-42.28070115 176.76745302 -43.2421063 180.75522772 -44.19364929 184.74560547 C-44.53842304 186.18178319 -44.88773229 187.61688202 -45.24223328 189.0506897 C-47.55325236 198.41241789 -49.81006413 208.03743579 -46.9375 217.5 C-42.04297047 223.81552197 -35.91500203 224.63050278 -28.37890625 225.703125 C-27.20134766 225.85007812 -27.20134766 225.85007812 -26 226 C-29.12307584 240.38451992 -32.53073992 254.69538556 -36 269 C-55.59188752 269.569409 -75.53220919 268.16928265 -90.6875 254.125 C-99.41959131 244.21965413 -102.757959 230.85034509 -102.25219727 217.84130859 C-100.8813513 196.96145336 -95.36426614 176.75014208 -90.43320084 156.49817657 C-89.27466433 151.73197719 -88.12634818 146.96331707 -86.97729492 142.19482422 C-85.52186242 136.15720279 -84.06542737 130.11983128 -82.60441589 124.08355713 C-79.15758529 109.83800785 -75.75258809 95.58289312 -72.37031174 81.32188606 C-70.79026166 74.66230775 -69.2061251 68.00370006 -67.62229729 61.34501934 C-66.33952306 55.95066556 -65.05901532 50.55579334 -63.7833252 45.15975952 C-62.58279933 40.08267999 -61.37544681 35.00727172 -60.16291618 29.93304634 C-59.71658098 28.05975034 -59.27278042 26.18584844 -58.83163643 24.31132317 C-58.22938685 21.75361429 -57.61839915 19.19815099 -57.00512695 16.64306641 C-56.83019588 15.89064006 -56.65526482 15.13821371 -56.47503281 14.36298656 C-55.22819695 9.22819695 -55.22819695 9.22819695 -53 7 C-51.10494995 6.4937439 -51.10494995 6.4937439 -48.76904297 6.13037109 C-47.4566011 5.92037979 -47.4566011 5.92037979 -46.11764526 5.70614624 C-44.69429367 5.49195541 -44.69429367 5.49195541 -43.2421875 5.2734375 C-42.26516876 5.12089508 -41.28815002 4.96835266 -40.28152466 4.81118774 C-38.20912961 4.48961454 -36.13609627 4.17213253 -34.0625 3.85839844 C-30.90709324 3.37986708 -27.75431666 2.88629759 -24.6015625 2.390625 C-22.58607732 2.07982111 -20.57045617 1.7698974 -18.5546875 1.4609375 C-17.61793182 1.31409515 -16.68117615 1.16725281 -15.71603394 1.01596069 C-14.37522263 0.81542587 -14.37522263 0.81542587 -13.00732422 0.61083984 C-12.23170135 0.49251801 -11.45607849 0.37419617 -10.6569519 0.25228882 C-7.09075951 -0.08633623 -3.58204701 -0.03709032 0 0 Z " fill="#000000" transform="translate(2511,191)"/>
<path d="M0 0 C17.16 0 34.32 0 52 0 C50.87501356 10.12487794 50.87501356 10.12487794 49.90423584 14.11599731 C49.68605194 15.02492737 49.46786804 15.93385742 49.24307251 16.87033081 C48.88636978 18.31921188 48.88636978 18.31921188 48.52246094 19.79736328 C48.27009674 20.84174561 48.01773254 21.88612793 47.75772095 22.9621582 C46.9217775 26.41615342 46.07803138 29.86819387 45.234375 33.3203125 C44.63864978 35.77630972 44.04346635 38.23243842 43.4487915 40.68869019 C42.03395139 46.52768646 40.61440194 52.36551682 39.19231248 58.20275009 C36.54780349 69.05842703 33.91383724 79.91666727 31.28007507 90.77495575 C30.66679891 93.30303398 30.0532841 95.83105432 29.43952942 98.35901642 C22.84032613 125.54523023 16.41057846 152.76850917 10 180 C-7.16 180 -24.32 180 -42 180 C-40.87501063 169.87509567 -40.87501063 169.87509567 -39.89750671 165.81912231 C-39.67787766 164.89599747 -39.4582486 163.97287262 -39.23196411 163.02177429 C-38.99259125 162.04021866 -38.75321838 161.05866302 -38.5065918 160.04736328 C-38.12563606 158.45652168 -38.12563606 158.45652168 -37.73698425 156.83354187 C-36.89617585 153.32788115 -36.04767043 149.82413048 -35.19921875 146.3203125 C-34.60111612 143.83230699 -34.00353639 141.34417571 -33.40644836 138.85592651 C-31.98684 132.94489277 -30.56254378 127.03500775 -29.13577062 121.12569988 C-26.47764854 110.11545186 -23.83109711 99.10241637 -21.18329239 88.08968353 C-20.2635208 84.26530535 -19.34281708 80.44115231 -18.42208862 76.61700439 C-13.74812001 57.1899251 -9.15193154 37.7451248 -4.60734558 18.28738403 C-4.36971937 17.27204716 -4.13209316 16.25671028 -3.88726616 15.21060562 C-3.44625208 13.32580325 -3.00640915 11.4407263 -2.56796455 9.55532455 C-2.37459951 8.72929859 -2.18123447 7.90327263 -1.98200989 7.05221558 C-1.8153523 6.33723341 -1.64869471 5.62225124 -1.47698689 4.88560295 C-1.05975732 3.23622994 -0.53800668 1.61402003 0 0 Z " fill="#000000" transform="translate(1752,277)"/>
<path d="M0 0 C5.18209233 3.75166354 7.63729626 7.49143985 9.36328125 13.7109375 C10.57095576 26.3493917 8.50679686 35.84435401 0.421875 45.66796875 C-6.89348579 52.92780498 -15.82229436 56.11069771 -25.94921875 56.0859375 C-35.4911134 56.04715761 -42.07774773 53.8170776 -49.19921875 47.2890625 C-54.30795925 41.68055391 -55.00098386 34.96219657 -54.9140625 27.71875 C-53.97190422 17.50097708 -48.69894675 9.36023968 -41.38671875 2.4609375 C-29.69139265 -6.78417989 -12.76761941 -7.52282969 0 0 Z " fill="#000000" transform="translate(1811.63671875,198.2890625)"/>
</svg>
